<svg width="30" height="30" viewBox="0 0 30 30" fill="none" xmlns="http://www.w3.org/2000/svg">
<path d="M3 8.45455C3 5.44208 5.44208 3 8.45455 3H21.5455C24.5579 3 27 5.44208 27 8.45455V21.5455C27 24.5579 24.5579 27 21.5455 27H8.45455C5.44208 27 3 24.5579 3 21.5455V8.45455Z" fill="#606060"/>
<path d="M15.0948 22.1484L15.0788 20.6143C13.7205 20.5984 12.4901 20.2734 11.3874 19.6396L11.9148 17.9217C12.9695 18.5023 14.0295 18.8086 15.0948 18.8406V15.3729C14.4556 15.1864 14.0241 15.0479 13.8004 14.9574C12.229 14.4034 11.4434 13.37 11.4434 11.8572C11.4434 10.8718 11.7736 10.0941 12.4341 9.52415C13.0946 8.95419 13.9815 8.63193 15.0948 8.55735V7.32688H15.8778V8.54137C17.1562 8.57866 18.2722 8.86896 19.2257 9.41229L18.5705 10.9943C17.6117 10.5629 16.7141 10.3311 15.8778 10.2992V13.4393C15.9205 13.4553 15.9844 13.4766 16.0696 13.5032C16.1548 13.5298 16.248 13.5591 16.3493 13.5911C16.4558 13.623 16.5277 13.6444 16.565 13.655C17.6357 14.0066 18.4 14.4434 18.8581 14.9654C19.3216 15.4874 19.5533 16.2145 19.5533 17.1467C19.5533 18.1534 19.2257 18.9524 18.5705 19.5437C17.9153 20.1349 17.0178 20.4812 15.8778 20.5824V22.1484H15.0948ZM15.0948 13.1756V10.3311C14.642 10.3897 14.2985 10.5336 14.0641 10.7626C13.8297 10.9917 13.7019 11.3246 13.6806 11.7614C13.6806 12.4112 14.0028 12.8347 14.6474 13.0318C14.7219 13.0584 14.8711 13.1064 15.0948 13.1756ZM15.8778 18.7926C16.8633 18.6328 17.356 18.0788 17.356 17.1307C17.356 16.4489 16.9432 15.9695 16.1175 15.6925C16.1016 15.6818 16.0589 15.6685 15.9897 15.6525C15.9258 15.6312 15.8885 15.6179 15.8778 15.6126V18.7926Z" fill="white"/>
</svg>
