<svg width="30" height="30" viewBox="0 0 30 30" fill="none" xmlns="http://www.w3.org/2000/svg">
<path fill-rule="evenodd" clip-rule="evenodd" d="M20.5136 3.46077L20.5148 4.3978C23.9581 4.66767 26.2327 7.01399 26.2364 10.6122L26.25 21.1444C26.2549 25.0675 23.7903 27.4812 19.8398 27.4875L10.1899 27.5C6.26399 27.505 3.76852 25.0337 3.76358 21.0994L3.75001 10.6909C3.74507 7.06896 5.93941 4.72889 9.38271 4.41279L9.38148 3.47576C9.38025 2.92604 9.78752 2.5125 10.3305 2.5125C10.8736 2.51125 11.2809 2.92354 11.2821 3.47327L11.2833 4.34783L18.6142 4.33783L18.613 3.46327C18.6118 2.91355 19.019 2.50125 19.5621 2.5C20.0928 2.49875 20.5124 2.91105 20.5136 3.46077ZM5.65185 11.077L24.337 11.052V10.6147C24.284 7.92853 22.9363 6.51924 20.5173 6.30935L20.5185 7.27136C20.5185 7.80859 20.1002 8.23463 19.5695 8.23463C19.0264 8.23588 18.6179 7.81109 18.6179 7.27386L18.6167 6.26187L11.2858 6.27186L11.287 7.28261C11.287 7.82109 10.881 8.24588 10.338 8.24588C9.79493 8.24713 9.38642 7.82359 9.38642 7.28511L9.38518 6.32309C6.97857 6.56422 5.64691 7.97851 5.65062 10.6884L5.65185 11.077ZM19.0499 16.7554V16.7691C19.0622 17.3438 19.5312 17.7799 20.1002 17.7674C20.6555 17.7536 21.0986 17.2776 21.0863 16.7029C21.0603 16.1532 20.6148 15.7046 20.0607 15.7059C19.493 15.7184 19.0487 16.1807 19.0499 16.7554ZM20.0693 22.3651C19.5016 22.3526 19.0437 21.879 19.0425 21.3043C19.0301 20.7296 19.4855 20.2536 20.0533 20.2399H20.0656C20.6457 20.2399 21.1159 20.7134 21.1159 21.3006C21.1171 21.8878 20.6481 22.3638 20.0693 22.3651ZM13.9652 16.7754C13.9898 17.3501 14.46 17.7986 15.0278 17.7736C15.5831 17.7474 16.0262 17.2726 16.0015 16.6979C15.9879 16.1357 15.5313 15.6984 14.9759 15.6996C14.4082 15.7246 13.9639 16.2006 13.9652 16.7754ZM15.0327 22.3088C14.465 22.3338 13.996 21.8853 13.9701 21.3106C13.9701 20.7359 14.4132 20.2611 14.9809 20.2349C15.5362 20.2336 15.9941 20.6709 16.0065 21.2319C16.0324 21.8078 15.5881 22.2826 15.0327 22.3088ZM8.88041 16.8191C8.9051 17.3938 9.37531 17.8436 9.94302 17.8173C10.4984 17.7923 10.9415 17.3163 10.9155 16.7416C10.9032 16.1794 10.4466 15.7421 9.88996 15.7434C9.32224 15.7684 8.87918 16.2444 8.88041 16.8191ZM9.94796 22.3151C9.38025 22.3413 8.91127 21.8915 8.88535 21.3168C8.88411 20.7421 9.32841 20.2661 9.89613 20.2411C10.4515 20.2399 10.9094 20.6772 10.9217 21.2394C10.9476 21.8141 10.5046 22.2901 9.94796 22.3151Z" fill="#606060"/>
</svg>
