<svg width="60" height="64" viewBox="0 0 60 64" fill="none" xmlns="http://www.w3.org/2000/svg">
<rect y="0.965332" width="60" height="62.069" rx="30" fill="#606060"/>
<path fill-rule="evenodd" clip-rule="evenodd" d="M33.85 22.5006C34.481 22.5006 35.111 22.5896 35.71 22.7906C39.401 23.9906 40.731 28.0406 39.62 31.5806C38.99 33.3896 37.96 35.0406 36.611 36.3896C34.68 38.2596 32.561 39.9196 30.28 41.3496L30.03 41.5006L29.77 41.3396C27.481 39.9196 25.35 38.2596 23.401 36.3796C22.061 35.0306 21.03 33.3896 20.39 31.5806C19.26 28.0406 20.59 23.9906 24.321 22.7696C24.611 22.6696 24.91 22.5996 25.21 22.5606H25.33C25.611 22.5196 25.89 22.5006 26.17 22.5006H26.28C26.91 22.5196 27.52 22.6296 28.111 22.8306H28.17C28.21 22.8496 28.24 22.8706 28.26 22.8896C28.481 22.9606 28.69 23.0406 28.89 23.1506L29.27 23.3206C29.3618 23.3696 29.4649 23.4444 29.554 23.5091C29.6104 23.5501 29.6612 23.587 29.7 23.6106C29.7163 23.6203 29.7329 23.63 29.7496 23.6397C29.8354 23.6898 29.9247 23.7419 30 23.7996C31.111 22.9506 32.46 22.4906 33.85 22.5006ZM36.51 29.7006C36.92 29.6896 37.27 29.3606 37.3 28.9396V28.8206C37.33 27.4196 36.481 26.1506 35.19 25.6606C34.78 25.5196 34.33 25.7406 34.18 26.1606C34.04 26.5806 34.26 27.0406 34.68 27.1896C35.321 27.4296 35.75 28.0606 35.75 28.7596V28.7906C35.731 29.0196 35.8 29.2406 35.94 29.4106C36.08 29.5806 36.29 29.6796 36.51 29.7006Z" fill="#53FDCA"/>
</svg>
