<svg width="600" height="555" viewBox="0 0 600 555" fill="none" xmlns="http://www.w3.org/2000/svg">
<path opacity="0.1" d="M300 555C465.685 555 600 542.617 600 527.342C600 512.067 465.685 499.685 300 499.685C134.315 499.685 0 512.067 0 527.342C0 542.617 134.315 555 300 555Z" fill="#605BFF"/>
<path d="M472.754 247.482L466.015 248.508L473.814 299.129L480.553 298.102L472.754 247.482Z" fill="#FAB623"/>
<path d="M472.75 247.518L466.084 248.572L467.599 243.451L468.357 240.74L469.872 242.999L472.75 247.518Z" fill="#FF8C64"/>
<path d="M480.02 294.499L473.28 295.525L473.854 299.248L480.593 298.221L480.02 294.499Z" fill="#35252F"/>
<path d="M480.627 301.137L474.719 302.041C474.416 302.041 474.264 301.89 474.264 301.589L473.81 299.028L480.627 297.974L481.082 300.535C481.082 300.836 480.93 301.137 480.627 301.137Z" fill="#EF452F"/>
<path d="M469.87 242.999L467.597 243.451L468.355 240.74L469.87 242.999Z" fill="#35252F"/>
<path d="M473.298 295.528L480.038 294.502L479.625 291.822L472.885 292.848L473.298 295.528Z" fill="#F68407"/>
<path d="M468.054 250.831L473.811 288.335C473.811 288.636 474.114 288.786 474.417 288.786C474.72 288.786 474.871 288.485 474.871 288.184L469.114 250.68C469.114 250.379 468.811 250.229 468.508 250.229C468.205 250.229 468.054 250.53 468.054 250.831Z" fill="#F68407"/>
<path d="M470.779 250.379L476.536 287.883C476.536 288.184 476.839 288.335 477.142 288.335C477.445 288.335 477.597 288.034 477.597 287.732L471.84 250.229C471.84 249.927 471.537 249.777 471.234 249.777C470.931 249.777 470.779 250.078 470.779 250.379Z" fill="#F68407"/>
<path d="M484.941 247.656L478.123 247.679L478.29 298.888L485.108 298.866L484.941 247.656Z" fill="#4F9D5C"/>
<path d="M485.022 247.667L478.204 247.817L480.477 242.847L481.537 240.437L482.749 242.847L485.022 247.667Z" fill="#FF8C64"/>
<path d="M485.17 295.252L478.352 295.274L478.364 299.04L485.182 299.018L485.17 295.252Z" fill="#35252F"/>
<path d="M484.72 301.89H478.811C478.508 301.89 478.356 301.739 478.356 301.438V298.877H485.174V301.438C485.174 301.739 485.023 301.89 484.72 301.89Z" fill="#EF452F"/>
<path d="M482.751 242.848H480.478L481.539 240.438L482.751 242.848Z" fill="#35252F"/>
<path d="M478.35 295.276L485.168 295.254L485.159 292.543L478.341 292.565L478.35 295.276Z" fill="#3C7341"/>
<path d="M479.87 250.228L480.021 288.183C480.021 288.484 480.324 288.635 480.476 288.635C480.779 288.635 480.93 288.334 480.93 288.183L480.779 250.228C480.779 249.927 480.476 249.776 480.324 249.776C480.173 249.776 479.87 249.927 479.87 250.228Z" fill="#3C7341"/>
<path d="M482.598 250.228L482.75 288.184C482.75 288.485 483.053 288.636 483.204 288.636C483.507 288.636 483.659 288.334 483.659 288.184L483.507 250.228C483.507 249.927 483.204 249.776 483.053 249.776C482.75 249.776 482.598 249.927 482.598 250.228Z" fill="#3C7341"/>
<path d="M496.814 248.438L490.064 247.484L482.816 298.187L489.567 299.14L496.814 248.438Z" fill="#1B6BFE"/>
<path d="M496.839 248.421L490.021 247.518L492.9 242.999L494.415 240.74L495.324 243.3L496.839 248.421Z" fill="#FF8C64"/>
<path d="M490.117 295.499L483.367 294.545L482.834 298.273L489.584 299.227L490.117 295.499Z" fill="#35252F"/>
<path d="M488.658 302.041L482.749 301.137C482.446 301.137 482.295 300.836 482.295 300.685L482.598 298.125L489.416 299.029L489.113 301.589C489.113 301.89 488.961 302.041 488.658 302.041Z" fill="#EF452F"/>
<path d="M495.324 243.3L492.9 242.999L494.415 240.74L495.324 243.3Z" fill="#35252F"/>
<path d="M483.321 294.437L490.071 295.391L490.455 292.707L483.705 291.753L483.321 294.437Z" fill="#1B48CA"/>
<path d="M491.384 250.229L486.082 287.732C486.082 288.034 486.233 288.335 486.536 288.335C486.839 288.335 487.142 288.184 487.142 287.883L492.445 250.379C492.445 250.078 492.293 249.777 491.99 249.777C491.687 249.777 491.384 249.927 491.384 250.229Z" fill="#1B48CA"/>
<path d="M493.961 250.68L488.659 288.184C488.659 288.485 488.81 288.786 489.113 288.786C489.416 288.786 489.719 288.636 489.719 288.335L495.022 250.831C495.022 250.53 494.87 250.229 494.567 250.229C494.264 250.078 494.113 250.379 493.961 250.68Z" fill="#1B48CA"/>
<path d="M499.113 268.001L498.659 270.713L498.356 273.273L497.901 277.038L497.598 279.448L496.992 283.364L496.689 285.774L496.235 289.54L495.932 291.95L495.477 295.866L495.174 298.275L494.568 302.191L494.265 304.451L493.962 306.559H467.146L466.843 304.451L466.54 302.191L466.086 298.275L465.783 295.866L465.328 291.95L465.025 289.54L464.419 285.774L464.116 283.364L463.662 279.448L463.358 277.038L462.904 273.273L462.601 270.713L462.146 268.001H499.113Z" fill="#EF452F"/>
<path d="M498.658 270.712L498.355 273.273H462.903L462.6 270.712H498.658Z" fill="#AD2F24"/>
<path d="M497.901 277.039L497.598 279.449H463.661L463.358 277.039H497.901Z" fill="#AD2F24"/>
<path d="M496.992 283.363L496.689 285.773H464.418L464.115 283.363H496.992Z" fill="#AD2F24"/>
<path d="M496.233 289.54L495.93 291.949H465.326L465.023 289.54H496.233Z" fill="#AD2F24"/>
<path d="M495.476 295.866L495.173 298.276H466.084L465.781 295.866H495.476Z" fill="#AD2F24"/>
<path d="M494.566 302.191L494.263 304.45H466.841L466.538 302.191H494.566Z" fill="#AD2F24"/>
<path d="M197.495 91.4244C221.342 91.4244 240.674 72.2058 240.674 48.4986C240.674 24.7913 221.342 5.57275 197.495 5.57275C173.648 5.57275 154.316 24.7913 154.316 48.4986C154.316 72.2058 173.648 91.4244 197.495 91.4244Z" fill="#FFCDB3"/>
<path d="M197.495 85.8516C221.342 85.8516 240.674 66.6331 240.674 42.9258C240.674 19.2185 221.342 0 197.495 0C173.648 0 154.316 19.2185 154.316 42.9258C154.316 66.6331 173.648 85.8516 197.495 85.8516Z" fill="#EF452F"/>
<path d="M197.494 77.8682C216.886 77.8682 232.643 62.204 232.643 42.925C232.643 23.6461 216.886 7.98193 197.494 7.98193C178.101 7.98193 162.345 23.6461 162.345 42.925C162.345 62.204 178.101 77.8682 197.494 77.8682Z" fill="white"/>
<path d="M162.345 42.925C162.345 43.8287 162.345 44.7324 162.496 45.6361C163.86 27.7127 179.162 13.4041 197.494 13.4041C215.977 13.4041 231.128 27.5621 232.491 45.6361C232.491 44.7324 232.643 43.8287 232.643 42.925C232.643 23.6461 216.886 7.98193 197.494 7.98193C178.101 7.98193 162.345 23.6461 162.345 42.925Z" fill="#FFDECB"/>
<path d="M197.495 46.5404C197.798 46.5404 198.101 46.3898 198.252 46.2392L215.524 23.1948C215.827 22.743 215.675 22.2911 215.372 21.9899C214.918 21.6886 214.463 21.8393 214.16 22.1405L197.343 44.733L178.102 36.2985C177.648 36.1479 177.193 36.2985 176.89 36.7503C176.739 37.2022 176.89 37.654 177.345 37.9553L197.04 46.5404C197.192 46.5404 197.343 46.5404 197.495 46.5404Z" fill="#35252F"/>
<path d="M456.412 278.059L420.342 399.24C418.683 404.598 413.708 408.308 408.18 408.308L261.685 408.72C253.946 408.72 247.727 402.262 248.141 394.568C248.556 387.424 254.499 381.791 261.685 381.791H317.657L362.573 257.587H440.934C451.714 257.587 459.453 267.892 456.412 278.059Z" fill="#FFD66B"/>
<path d="M365.752 392.37C347.357 392.37 332.445 392.124 332.445 391.821C332.445 391.517 347.357 391.271 365.752 391.271C384.147 391.271 399.059 391.517 399.059 391.821C399.059 392.124 384.147 392.37 365.752 392.37Z" fill="#263238"/>
<path d="M445.632 261.435C445.356 261.298 435.405 290.288 423.382 326.285C411.358 362.144 401.822 391.272 402.099 391.409C402.375 391.546 412.326 362.556 424.349 326.559C436.373 290.7 445.909 261.435 445.632 261.435Z" fill="#263238"/>
<path d="M338.526 516.024L347.509 515.75V408.308H338.526V516.024Z" fill="#FFD66B"/>
<path d="M384.547 515.474H301.487L339.078 502.559H348.061L384.547 515.474Z" fill="#FFD66B"/>
<path d="M405.556 229.696L391.874 297.98L394.361 349.228L301.904 333.977L305.497 289.187L305.635 252.091L282.97 295.782L265.28 261.846L297.62 203.728C303.562 197.683 310.472 193.149 318.765 190.126C322.772 188.615 327.057 187.791 332.032 187.653C342.674 190.951 353.315 190.951 364.095 187.653C365.339 187.791 367.135 187.928 369.485 188.203C369.623 188.203 369.761 188.203 369.899 188.203C389.524 190.539 404.45 206.751 405.556 226.398V229.696Z" fill="#53FDCA"/>
<path d="M369.347 188.202C369.347 188.202 407.352 188.477 412.051 228.321L412.742 257.586L379.988 257.311L369.347 188.202Z" fill="#53FDCA"/>
<path d="M306.05 295.782C306.326 295.782 306.188 279.57 305.774 259.648C305.359 239.726 304.806 223.514 304.392 223.514C304.115 223.514 304.253 239.726 304.668 259.648C305.221 279.57 305.774 295.782 306.05 295.782Z" fill="#263238"/>
<path d="M319.04 269.541C319.04 269.541 301.074 270.777 297.896 275.586C294.717 280.257 289.742 293.722 291.538 293.859C293.473 293.997 294.717 292.897 294.717 292.897L299.692 284.242C299.692 284.242 298.863 292.623 301.903 292.76C304.806 292.897 319.455 295.783 319.455 295.783L319.04 269.541Z" fill="#FFBE9D"/>
<path d="M412.604 249.755V295.782C412.051 306.498 401.824 314.192 391.321 311.994L318.903 297.155L319.041 267.616L381.508 279.569L382.338 248.381L412.604 249.755Z" fill="#53FDCA"/>
<path d="M371.281 308.285C371.281 308.285 371.004 308.148 370.313 308.01C369.622 307.873 368.655 307.598 367.549 307.323C365.062 306.774 361.468 306.087 356.908 305.125C347.648 303.201 334.657 300.591 319.178 297.431L319.593 297.843C319.593 288.638 319.593 278.333 319.593 267.479L319.04 268.029C323.186 268.853 327.471 269.677 331.755 270.502C349.998 273.937 367.135 277.234 381.508 279.982L382.061 280.119V279.57C381.646 265.83 381.231 254.427 380.955 246.321C380.817 242.336 380.679 239.314 380.54 237.115C380.54 236.154 380.402 235.329 380.402 234.642C380.402 234.093 380.264 233.818 380.264 233.818C380.264 233.818 380.264 234.093 380.264 234.642C380.264 235.329 380.264 236.016 380.264 237.115C380.264 239.314 380.402 242.474 380.402 246.458C380.54 254.564 380.817 265.968 381.231 279.707L381.784 279.295C367.411 276.547 350.274 273.25 332.031 269.677C327.609 268.853 323.325 268.029 319.317 267.204L318.764 267.067V267.617C318.764 278.471 318.764 288.638 318.764 297.98V298.393L319.178 298.53C334.657 301.553 347.648 304.026 356.908 305.812C361.468 306.636 365.062 307.323 367.549 307.735C368.793 307.873 369.622 308.148 370.452 308.285C371.004 308.285 371.281 308.285 371.281 308.285Z" fill="#263238"/>
<path d="M329.682 188.203C329.682 188.203 329.544 188.478 329.405 188.89C329.267 189.303 328.991 189.989 328.853 190.951C328.438 192.737 328.3 195.485 329.129 198.645C329.958 201.805 332.17 205.378 335.348 208.263C338.665 211.285 343.364 213.209 348.477 213.209C353.591 213.209 358.428 211.148 361.468 207.988C364.509 204.828 365.891 200.844 366.305 197.546C366.72 194.249 366.029 191.501 365.338 189.852C365.062 189.028 364.647 188.341 364.371 187.929C364.094 187.516 363.956 187.242 363.956 187.379C363.818 187.379 364.371 188.341 364.923 189.989C365.476 191.638 365.891 194.249 365.476 197.409C365.062 200.569 363.68 204.278 360.639 207.301C357.737 210.324 353.176 212.247 348.339 212.247C343.502 212.247 338.941 210.461 335.763 207.576C332.584 204.828 330.511 201.53 329.544 198.37C328.576 195.348 328.714 192.6 328.853 190.951C329.544 189.165 329.82 188.203 329.682 188.203Z" fill="#263238"/>
<path d="M326.226 299.492C326.364 299.492 326.364 297.706 326.226 294.958C326.088 292.21 325.95 288.363 325.95 284.104C325.95 279.845 325.95 275.998 326.088 273.25C326.226 270.502 326.226 268.716 326.088 268.716C325.95 268.716 325.673 270.365 325.397 273.25C325.12 275.998 324.982 279.982 324.982 284.241C324.982 288.5 325.259 292.347 325.535 295.233C325.811 297.843 326.088 299.629 326.226 299.492Z" fill="#121212"/>
<path d="M329.959 300.317C330.097 300.317 330.097 298.53 330.097 295.783C330.097 292.623 329.959 288.913 329.959 284.929C329.959 280.944 329.959 277.235 329.959 274.075C329.959 271.327 329.959 269.541 329.821 269.541C329.683 269.541 329.406 271.189 329.268 274.075C329.13 276.822 328.992 280.669 328.992 284.929C328.992 289.188 329.13 293.035 329.406 295.783C329.544 298.668 329.821 300.317 329.959 300.317Z" fill="#121212"/>
<path d="M257.401 483.187L243.719 520.695L224.233 547.212C222.851 549.136 223.404 551.884 225.338 553.12C226.444 553.807 227.826 553.944 229.07 553.395C236.947 550.097 265.694 538.144 266.523 535.396C267.49 532.099 286.009 491.843 286.009 491.843L257.401 483.187Z" fill="#A2845E"/>
<g opacity="0.6">
<g opacity="0.6">
<path d="M225.477 553.121L267.628 532.924L267.076 534.436C266.523 535.81 265.555 536.909 264.312 537.596C260.857 539.382 251.182 544.328 229.485 553.396C228.103 553.945 226.582 553.808 225.477 553.121Z" fill="#263238"/>
</g>
</g>
<g opacity="0.6">
<g opacity="0.6">
<g opacity="0.6">
<path opacity="0.6" d="M264.727 517.948C263.483 518.223 262.654 519.46 262.93 520.696C263.206 521.933 264.45 522.757 265.694 522.482C266.938 522.207 267.905 520.696 267.629 519.597C267.214 518.498 265.694 517.536 264.588 518.086" fill="white"/>
</g>
</g>
</g>
<path d="M240.403 540.205C240.126 540.205 240.126 538.006 238.191 536.083C236.395 534.159 234.184 533.885 234.184 533.61C234.184 533.472 234.736 533.335 235.704 533.61C236.671 533.885 237.777 534.434 238.882 535.533C239.85 536.632 240.403 537.869 240.541 538.831C240.679 539.655 240.541 540.205 240.403 540.205Z" fill="#263238"/>
<path d="M235.705 544.19C235.429 544.327 234.738 542.541 233.079 541.304C231.421 539.931 229.624 539.656 229.624 539.381C229.624 539.106 231.697 539.106 233.632 540.617C235.567 541.991 235.981 544.052 235.705 544.19Z" fill="#263238"/>
<path d="M247.866 535.672C247.589 535.809 246.484 533.199 243.996 531.001C241.508 528.665 238.882 527.841 239.021 527.566C239.021 527.291 242.061 527.841 244.687 530.314C247.313 532.787 248.004 535.672 247.866 535.672Z" fill="#263238"/>
<path d="M252.979 524.68C252.841 524.817 251.044 523.169 248.418 522.069C245.793 520.833 243.443 520.695 243.443 520.558C243.443 520.283 245.931 520.146 248.833 521.382C251.597 522.482 253.117 524.542 252.979 524.68Z" fill="#263238"/>
<path d="M257.263 513.826C257.125 513.963 255.467 511.903 252.564 510.941C249.662 509.842 247.174 510.529 247.174 510.254C247.174 510.116 247.727 509.842 248.833 509.704C249.938 509.567 251.459 509.567 252.979 510.116C254.499 510.666 255.743 511.49 256.434 512.315C257.125 513.139 257.263 513.689 257.263 513.826Z" fill="#263238"/>
<path d="M253.394 508.88C253.394 508.88 253.394 508.331 253.946 507.506C254.361 506.682 255.19 505.445 256.572 504.209C257.263 503.659 257.954 502.972 259.198 502.835C259.751 502.835 260.58 503.247 260.857 503.797C261.133 504.484 260.995 505.171 260.857 505.72C259.889 508.056 256.987 509.567 254.223 508.88C251.459 508.193 249.662 505.72 249.386 503.247C249.386 502.698 249.386 501.873 249.939 501.461C250.491 500.911 251.321 500.911 251.873 501.324C252.979 501.873 253.394 502.835 253.808 503.522C254.637 505.033 255.052 506.407 255.19 507.369C255.328 508.331 255.328 508.88 255.328 508.88C255.19 508.88 255.052 506.682 253.255 503.797C252.841 503.11 252.288 502.285 251.459 501.873C251.044 501.736 250.63 501.736 250.491 502.011C250.215 502.285 250.077 502.698 250.215 503.247C250.491 505.308 252.15 507.506 254.499 508.056C256.849 508.605 259.475 507.369 260.166 505.445C260.304 505.033 260.442 504.484 260.304 504.071C260.165 503.659 259.889 503.522 259.475 503.522C258.645 503.522 257.816 504.071 257.125 504.621C254.223 506.819 253.532 509.018 253.394 508.88Z" fill="#263238"/>
<path d="M199.633 473.432L200.876 503.933C200.876 503.933 170.196 515.337 169.781 520.97L229.208 520.832L229.346 473.294L199.633 473.432Z" fill="#A2845E"/>
<g opacity="0.6">
<g opacity="0.6">
<path opacity="0.6" d="M219.256 501.323C220.362 501.598 221.191 502.972 220.915 504.071C220.638 505.17 219.394 505.994 218.151 505.719C217.045 505.445 215.939 503.933 216.354 502.834C216.769 501.735 218.289 500.773 219.394 501.46" fill="white"/>
</g>
</g>
<g opacity="0.6">
<path d="M229.208 520.833V516.162L171.992 518.085C171.992 518.085 169.366 519.184 169.643 521.108L229.208 520.833Z" fill="#263238"/>
</g>
<path d="M199.909 503.658C199.909 503.933 201.429 504.07 202.811 505.032C204.331 505.856 205.022 507.23 205.299 507.093C205.575 507.093 205.161 505.307 203.364 504.207C201.567 502.971 199.771 503.383 199.909 503.658Z" fill="#263238"/>
<path d="M193.689 506.131C193.689 506.406 194.933 506.956 195.9 508.055C196.868 509.291 197.144 510.528 197.42 510.528C197.697 510.528 197.835 508.879 196.591 507.368C195.347 505.994 193.689 505.857 193.689 506.131Z" fill="#263238"/>
<path d="M190.096 513.55C190.372 513.55 190.787 512.176 189.958 510.528C189.267 508.879 187.885 508.329 187.747 508.604C187.608 508.879 188.438 509.703 189.129 510.94C189.681 512.314 189.82 513.55 190.096 513.55Z" fill="#263238"/>
<path d="M200.323 496.651C200.461 496.926 201.843 496.514 203.364 496.651C205.022 496.789 206.266 497.201 206.404 497.063C206.542 496.789 205.299 495.827 203.364 495.689C201.567 495.415 200.185 496.376 200.323 496.651Z" fill="#263238"/>
<g opacity="0.3">
<path opacity="0.3" d="M199.91 479.477L200.048 484.835L229.347 484.561V479.614L199.91 479.477Z" fill="black"/>
</g>
<path d="M200.185 490.468C200.185 490.606 201.291 490.743 203.226 490.468C204.193 490.331 205.161 490.056 206.404 489.507C206.957 489.232 207.51 488.957 208.063 488.545C208.339 488.408 208.616 488.133 208.892 487.858C209.168 487.583 209.445 486.759 209.03 486.347C208.754 485.934 208.201 485.66 207.786 485.66C207.372 485.66 206.957 485.797 206.681 485.797C205.99 485.934 205.437 486.209 204.884 486.484C203.779 487.034 202.811 487.721 202.12 488.27C200.738 489.507 200.324 490.606 200.324 490.743C200.462 490.881 201.153 489.919 202.535 488.82C203.226 488.27 204.193 487.721 205.161 487.308C205.713 487.034 206.266 486.896 206.819 486.759C207.51 486.621 207.925 486.621 208.201 486.896C208.201 487.034 208.201 487.034 208.201 487.171C208.063 487.308 207.786 487.446 207.51 487.721C206.957 487.995 206.404 488.408 205.99 488.682C205.022 489.232 203.917 489.507 203.088 489.781C201.429 490.194 200.185 490.331 200.185 490.468Z" fill="#263238"/>
<path d="M200.6 490.881C200.738 490.881 201.291 489.919 201.429 487.995C201.429 487.033 201.429 485.934 201.015 484.698C200.876 484.148 200.6 483.461 200.185 482.912C199.771 482.362 199.356 481.538 198.251 481.4C197.698 481.4 197.145 481.813 197.007 482.225C196.869 482.637 196.73 482.912 196.73 483.324C196.592 484.011 196.592 484.698 196.73 485.385C196.868 486.621 197.421 487.72 197.974 488.407C199.08 489.919 200.324 490.331 200.324 490.194C200.462 490.056 199.356 489.507 198.527 487.995C198.112 487.308 197.698 486.347 197.56 485.247C197.56 484.698 197.56 484.148 197.56 483.599C197.698 482.912 197.836 482.5 198.112 482.5C198.389 482.5 198.942 482.912 199.218 483.461C199.494 484.011 199.771 484.56 199.909 485.11C200.324 486.209 200.462 487.171 200.462 487.995C200.738 489.781 200.462 490.881 200.6 490.881Z" fill="#263238"/>
<path d="M229.346 327.384C264.449 330.956 311.023 335.765 311.023 335.765L304.666 392.646C304.666 392.646 236.256 374.647 236.671 376.158C237.223 377.67 233.492 497.202 233.492 497.202H192.308L191.478 361.87C191.34 341.398 208.892 325.323 229.346 327.384Z" fill="#030229"/>
<path d="M395.189 350.327V367.914C395.189 379.867 381.369 392.645 369.345 392.645H359.947C352.623 392.645 341.014 387.286 335.071 383.027L331.478 380.417L288.497 512.589C288.497 512.589 239.435 503.796 239.435 502.284C239.435 500.773 272.742 394.018 288.082 344.42C294.301 324.223 316.137 312.407 336.315 319.277C337.006 319.551 337.697 319.826 338.388 320.101C360.362 329.032 395.189 350.327 395.189 350.327Z" fill="#030229"/>
<path d="M239.573 502.422C239.573 502.422 239.711 502.284 239.85 502.01C239.988 501.597 240.126 501.185 240.402 500.636C240.817 499.399 241.508 497.613 242.337 495.14C243.996 490.331 246.207 483.462 248.971 474.806C254.499 457.632 261.824 433.725 269.84 407.346C273.847 394.156 277.579 381.516 281.034 370.112C282.692 364.342 284.351 358.983 285.871 353.9C286.7 351.289 287.391 348.954 288.082 346.481C288.773 344.145 289.464 341.809 290.294 339.748C291.952 335.626 294.578 332.466 297.204 329.993C299.83 327.52 302.317 325.734 304.528 324.36C306.601 322.986 308.26 321.887 309.504 321.2C310.056 320.925 310.471 320.651 310.747 320.376C311.024 320.238 311.162 320.101 311.162 320.101C311.162 320.101 311.024 320.101 310.747 320.376C310.333 320.513 309.918 320.788 309.365 321.063C308.122 321.75 306.463 322.712 304.39 324.085C302.179 325.459 299.691 327.246 296.927 329.581C294.301 332.054 291.537 335.214 289.741 339.474C288.773 341.534 288.082 343.87 287.391 346.206C286.7 348.541 285.871 351.015 285.18 353.488C283.66 358.571 282.001 364.067 280.205 369.7C276.75 381.104 272.88 393.744 268.872 406.934C260.856 433.313 253.67 457.082 248.418 474.531C245.792 483.049 243.581 490.056 242.061 495.003C241.37 497.338 240.679 499.262 240.264 500.498C240.126 501.048 239.988 501.597 239.85 502.01C239.573 502.147 239.573 502.422 239.573 502.422Z" fill="#455A64"/>
<path d="M229.208 359.12C228.932 359.258 231.281 362.83 233.216 367.501C235.151 372.173 235.98 376.295 236.395 376.295C236.671 376.295 236.257 372.035 234.183 367.089C232.11 362.143 229.346 358.846 229.208 359.12Z" fill="#455A64"/>
<path d="M221.331 364.616C221.192 364.891 224.786 366.402 228.379 369.287C232.11 372.172 234.46 375.195 234.736 375.058C235.013 374.92 232.94 371.486 229.07 368.463C225.2 365.44 221.331 364.341 221.331 364.616Z" fill="#455A64"/>
<path d="M288.221 512.726C288.497 512.863 300.106 477.416 314.065 433.725C328.161 390.034 339.218 354.449 338.941 354.449C338.665 354.312 327.056 389.759 313.097 433.45C299.139 477.141 287.945 512.589 288.221 512.726Z" fill="#455A64"/>
<path d="M340.875 306.5L200.323 307.874L174.203 234.231L276.334 234.918L300.105 301.141L340.875 301.691V306.5Z" fill="#1F1F1F"/>
<path d="M233.493 277.373C230.363 277.373 227.827 274.851 227.827 271.74C227.827 268.629 230.363 266.107 233.493 266.107C236.622 266.107 239.159 268.629 239.159 271.74C239.159 274.851 236.622 277.373 233.493 277.373Z" fill="white"/>
<path d="M352.344 107.279C350.962 102.333 347.369 99.9972 342.532 98.3485C337.694 96.6998 332.028 97.6616 328.02 100.684C325.256 102.745 323.183 105.768 320.005 106.867C314.753 108.653 308.534 104.806 303.42 107.142C300.38 108.516 298.721 112.225 299.412 115.385C300.242 118.545 303.42 121.018 306.737 120.881C303.282 122.118 302.176 127.064 304.25 130.086C306.323 133.109 310.469 134.346 314.062 133.659C317.655 132.972 320.834 130.773 323.598 128.3C326.362 125.827 328.85 123.079 331.752 120.881C334.654 118.683 338.247 117.034 341.979 117.171C346.954 117.446 351.238 121.156 353.45 125.552C355.661 129.949 356.214 135.032 356.49 139.979C356.766 144.925 356.905 150.008 358.287 154.68C358.425 155.229 358.701 155.916 359.254 156.054C360.083 156.328 360.774 155.504 361.189 154.68C365.75 146.299 368.652 137.093 369.619 127.613C370.172 122.118 370.034 116.897 366.993 112.363C363.815 107.691 356.075 104.256 352.344 107.279Z" fill="#030229"/>
<path d="M362.018 130.224L364.505 185.868C364.92 195.348 363.676 209.362 348.612 209.362C335.483 208.401 331.613 196.173 331.337 187.38C331.199 183.258 330.922 179.686 330.922 179.273C330.922 179.273 316.687 178.586 314.891 164.572C314.062 157.84 313.509 143.826 313.232 131.048C312.818 117.446 323.183 105.768 336.727 104.394L338.109 104.257C352.897 103.57 361.603 115.523 362.018 130.224Z" fill="#FFAA8C"/>
<path d="M330.784 178.999C330.784 178.999 339.767 178.725 348.612 171.855C348.612 171.855 345.295 182.434 331.198 182.572L330.784 178.999Z" fill="#EB996E"/>
<path d="M318.344 139.979C318.482 141.078 319.45 141.903 320.555 141.765C321.661 141.765 322.49 140.804 322.49 139.704C322.352 138.605 321.385 137.781 320.279 137.918C319.035 138.056 318.206 138.88 318.344 139.979Z" fill="#263238"/>
<path d="M316.962 137.643C317.238 137.917 318.621 136.543 320.832 136.406C323.043 136.131 324.701 137.093 324.84 136.818C324.978 136.681 324.701 136.269 323.872 135.856C323.181 135.444 321.937 135.032 320.555 135.17C319.173 135.307 318.068 135.994 317.515 136.543C316.962 136.956 316.824 137.505 316.962 137.643Z" fill="#263238"/>
<path d="M339.628 138.467C339.766 139.567 340.733 140.391 341.839 140.254C342.945 140.254 343.774 139.292 343.774 138.193C343.636 137.094 342.668 136.269 341.563 136.407C340.319 136.544 339.49 137.368 339.628 138.467Z" fill="#263238"/>
<path d="M338.247 135.72C338.523 135.995 339.905 134.621 342.116 134.484C344.328 134.209 345.986 135.171 346.124 134.896C346.262 134.758 345.986 134.346 345.157 133.934C344.466 133.522 343.222 133.11 341.84 133.247C340.458 133.385 339.352 134.072 338.8 134.621C338.247 135.171 338.109 135.583 338.247 135.72Z" fill="#263238"/>
<path d="M332.165 152.481C332.165 152.344 330.783 152.207 328.572 152.207C328.019 152.207 327.466 152.207 327.328 151.794C327.19 151.382 327.328 150.833 327.466 150.146C327.881 148.772 328.295 147.26 328.71 145.749C330.368 139.566 331.474 134.483 331.198 134.483C330.921 134.483 329.401 139.429 327.743 145.612C327.328 147.123 326.913 148.634 326.637 150.008C326.499 150.695 326.222 151.382 326.637 152.207C326.775 152.619 327.328 152.894 327.604 152.894C328.019 153.031 328.295 152.894 328.572 152.894C330.783 152.756 332.165 152.619 332.165 152.481Z" fill="#263238"/>
<path d="M338.661 153.306C338.246 153.306 338.523 155.642 336.726 157.565C334.93 159.489 332.304 159.489 332.442 159.764C332.442 159.901 332.995 160.176 334.1 160.038C335.206 159.901 336.588 159.489 337.694 158.39C338.799 157.291 339.214 155.779 339.214 154.817C339.076 153.856 338.799 153.306 338.661 153.306Z" fill="#263238"/>
<path d="M336.727 127.339C337.004 127.889 339.077 127.339 341.702 127.476C344.328 127.476 346.401 128.026 346.678 127.476C346.816 127.202 346.401 126.652 345.434 126.24C344.605 125.828 343.223 125.416 341.702 125.416C340.182 125.416 338.8 125.828 337.971 126.24C337.142 126.652 336.727 127.064 336.727 127.339Z" fill="#263238"/>
<path d="M317.102 131.323C317.517 131.736 319.037 131.049 320.695 130.911C322.492 130.636 324.012 130.911 324.289 130.362C324.427 130.087 324.15 129.675 323.459 129.263C322.768 128.85 321.663 128.576 320.419 128.713C319.175 128.85 318.208 129.4 317.655 129.95C317.102 130.499 316.964 131.049 317.102 131.323Z" fill="#263238"/>
<path d="M361.88 140.666C362.157 140.529 371.278 136.819 371.969 146.437C372.66 156.054 362.848 154.818 362.848 154.543C362.848 154.131 361.88 140.666 361.88 140.666Z" fill="#FFBE9D"/>
<path d="M365.473 150.559C365.473 150.559 365.611 150.696 365.888 150.833C366.164 150.971 366.717 150.971 367.132 150.833C368.099 150.421 368.928 148.772 368.79 146.986C368.79 146.162 368.514 145.338 368.099 144.651C367.684 143.964 367.27 143.552 366.717 143.414C366.164 143.277 365.888 143.689 365.75 143.964C365.611 144.238 365.75 144.376 365.611 144.513C365.611 144.513 365.335 144.376 365.473 143.964C365.473 143.826 365.611 143.552 365.75 143.277C366.026 143.139 366.302 143.002 366.717 143.002C367.408 143.002 368.237 143.689 368.652 144.376C369.066 145.063 369.343 146.025 369.481 146.986C369.619 148.91 368.652 150.833 367.408 151.246C366.717 151.52 366.164 151.246 365.888 151.108C365.611 150.833 365.473 150.696 365.473 150.559Z" fill="#EB996E"/>
<path d="M309.916 128.438C316.274 129.4 323.045 127.064 327.468 122.53C330.647 119.233 332.72 114.836 336.866 113.05C339.63 111.814 342.947 112.088 345.711 113.325C348.475 114.561 350.824 116.485 353.035 118.683C351.101 126.102 353.726 133.796 356.352 140.941C356.629 141.765 357.043 142.59 357.734 143.002C358.978 143.689 360.637 142.864 361.466 141.765C362.848 139.979 363.262 137.506 363.401 135.308C363.815 130.087 363.401 124.728 361.604 119.782C359.946 114.836 356.905 110.302 352.759 107.005C347.507 103.02 340.735 101.372 334.102 102.196C327.468 103.02 321.387 106.043 316.688 110.577C314.477 112.638 312.404 115.111 311.575 117.996" fill="#030229"/>
<path d="M501.329 439.864C496.354 437.391 490.549 436.979 485.159 437.941C482.257 438.49 479.217 439.315 477.144 441.513C475.209 443.711 474.794 447.558 477.005 449.482C478.387 450.581 480.322 450.718 482.119 450.718C486.403 450.718 491.102 449.894 494.557 452.504C496.492 454.016 497.874 456.351 500.085 457.176C502.435 457.863 504.922 456.489 506.166 454.428C507.41 452.367 507.41 449.756 506.857 447.558C506.995 447.421 506.304 442.337 501.329 439.864Z" fill="#3A974C"/>
<path d="M512.661 418.156C509.62 422.415 503.816 421.041 501.052 418.43C498.288 415.82 497.182 411.973 496.076 408.401C493.727 400.157 491.239 391.501 493.036 383.12C493.589 380.647 494.556 378.174 496.353 376.251C498.149 374.327 500.913 373.228 503.401 373.915C506.303 374.739 508.238 377.625 509.482 380.235C513.352 388.341 515.425 397.135 515.425 406.065C515.563 410.324 515.01 414.721 512.661 418.156Z" fill="#3A974C"/>
<path d="M520.952 424.338C517.636 420.491 517.083 414.858 518.465 410.05C519.985 405.241 523.164 401.119 527.033 397.684C531.456 393.7 536.708 390.677 542.374 388.754C544.585 387.929 546.935 387.38 549.284 387.654C551.633 387.929 553.983 389.028 555.088 391.089C556.747 394.112 555.088 397.822 553.43 400.844C550.528 406.203 547.073 411.286 543.341 416.095C540.301 419.942 536.846 423.789 532.285 425.438C527.724 427.224 522.887 426.949 520.538 423.789" fill="#3A974C"/>
<path d="M512.937 482.73C512.937 482.73 512.799 482.044 512.661 480.807C512.522 479.433 512.384 477.647 512.108 475.449C511.831 473.25 511.555 470.502 510.864 467.617C510.311 464.732 509.206 461.572 507.962 458.412C506.718 455.252 505.059 452.367 503.263 450.168C501.466 447.833 499.255 446.184 497.32 445.222C495.385 444.26 493.589 443.848 492.345 443.711C491.101 443.573 490.41 443.436 490.41 443.436C490.41 443.436 491.101 443.436 492.345 443.436C493.589 443.573 495.524 443.848 497.597 444.81C499.67 445.772 502.019 447.42 503.954 449.756C505.889 452.092 507.547 454.977 508.791 458.275C510.035 461.435 511.002 464.595 511.555 467.617C512.108 470.502 512.384 473.25 512.661 475.449C512.799 477.647 512.937 479.57 512.937 480.807C512.937 482.044 512.937 482.73 512.937 482.73Z" fill="#263238"/>
<path d="M512.522 478.608C512.522 478.608 512.522 478.334 512.522 477.647C512.522 476.96 512.522 476.135 512.522 475.036C512.522 472.838 512.522 469.541 512.384 465.556C512.246 457.587 511.555 448.932 510.173 436.841C508.929 425.437 507.271 412.11 505.474 403.454C505.059 401.531 504.645 399.745 504.368 398.233C503.954 396.722 503.677 395.348 503.401 394.249C503.125 393.287 502.986 392.463 502.848 391.776C502.71 391.226 502.71 390.952 502.71 390.952C502.71 390.952 502.848 391.226 502.986 391.776C503.125 392.463 503.401 393.287 503.677 394.249C503.954 395.348 504.368 396.585 504.783 398.233C505.198 399.745 505.612 401.531 506.027 403.454C507.824 411.286 509.62 422.277 511.002 434.368C512.384 446.596 512.937 457.587 512.937 465.694C512.937 469.678 512.937 472.975 512.799 475.174C512.799 476.273 512.661 477.097 512.661 477.784C512.522 478.334 512.522 478.608 512.522 478.608Z" fill="#263238"/>
<path d="M512.522 457.175C512.522 457.175 512.522 456.213 512.522 454.427C512.66 452.641 512.798 450.168 513.351 447.145C513.904 444.123 514.595 440.413 515.7 436.566C516.253 434.78 517.359 430.383 520.123 423.926C523.854 415.133 528.83 407.988 533.252 403.592C534.219 402.355 535.463 401.531 536.293 400.706C536.707 400.294 537.122 399.882 537.675 399.607C538.089 399.332 538.504 399.058 538.918 398.783C540.3 397.821 541.13 397.271 541.268 397.271C541.406 397.409 538.089 399.47 533.805 403.866C529.521 408.4 524.684 415.407 520.952 424.063C518.879 428.735 517.497 432.994 516.391 436.566C515.286 440.413 514.457 444.123 513.904 447.145C513.351 450.168 513.075 452.641 512.798 454.427C512.66 456.351 512.522 457.175 512.522 457.175Z" fill="#263238"/>
<path d="M533.253 494.958L531.042 524.222H493.174L490.963 494.958H533.253Z" fill="#FFD66B"/>
<path d="M486.401 483.417H536.845V494.958H486.401V483.417Z" fill="#FFD66B"/>
<path d="M531.442 529.745L533.663 524.249H490.82L493.302 529.745H531.442Z" fill="#FFD66B"/>
<path d="M491.792 504.438C491.792 504.438 491.792 504.576 491.93 504.713C492.068 504.851 492.206 505.125 492.483 505.4C493.036 506.087 493.727 507.049 494.694 508.148L494.832 508.285C496.214 506.362 498.011 503.889 500.222 500.866H499.946C501.604 503.202 503.401 505.675 505.336 508.423L505.474 508.698L505.612 508.423C507.547 506.087 509.758 503.614 511.969 500.866H511.555C511.693 501.004 511.831 501.141 511.969 501.278C513.904 503.751 515.839 506.087 517.636 508.285L517.774 508.56L517.912 508.285C519.847 505.538 521.644 503.064 523.302 500.729H523.026C525.651 503.751 527.863 506.224 529.659 508.148L529.797 508.285L529.936 508.148C530.765 506.637 531.456 505.538 532.009 504.713C532.285 504.301 532.423 504.026 532.562 503.751C532.7 503.477 532.7 503.477 532.7 503.477C532.7 503.477 532.562 503.614 532.423 503.751C532.285 504.026 532.009 504.301 531.87 504.576C531.318 505.4 530.627 506.499 529.659 508.011H529.797C528.139 506.087 525.928 503.477 523.302 500.454L523.164 500.317L523.026 500.454C521.367 502.79 519.57 505.263 517.636 507.873H518.05C516.254 505.675 514.319 503.202 512.384 500.866C512.246 500.729 512.108 500.591 511.969 500.454L511.831 500.179L511.693 500.454C509.482 503.064 507.409 505.675 505.336 508.011H505.75C503.815 505.263 502.019 502.79 500.36 500.591L500.222 500.317L500.084 500.591C498.011 503.614 496.076 506.224 494.832 508.148H494.97C494.003 507.049 493.174 506.087 492.621 505.4C492.345 505.125 492.206 504.851 492.068 504.713C491.792 504.576 491.792 504.438 491.792 504.438Z" fill="#030229"/>
<path d="M511.693 494.958C500.015 494.958 490.548 494.835 490.548 494.683C490.548 494.532 500.015 494.409 511.693 494.409C523.371 494.409 532.838 494.532 532.838 494.683C532.838 494.835 523.371 494.958 511.693 494.958Z" fill="#455A64"/>
<path d="M119.475 173.228L145.734 282.593H138.409L112.427 173.228H119.475Z" fill="#263238"/>
<path d="M129.565 245.221C129.98 247.282 117.541 306.911 117.541 306.911H123.484L132.882 259.647L129.565 245.221Z" fill="#263238"/>
<path d="M41.9432 385.776H165.22V515.75H41.9432V385.776Z" fill="#1F1F1F"/>
<path d="M35.7242 404.735H41.8052V410.781H35.7242V404.735Z" fill="#263238"/>
<path d="M35.7242 423.833H41.8052V429.879H35.7242V423.833Z" fill="#263238"/>
<path d="M35.7242 443.068H41.8052V449.113H35.7242V443.068Z" fill="#263238"/>
<path d="M35.7242 462.165H41.8052V468.21H35.7242V462.165Z" fill="#263238"/>
<path d="M35.5859 444.716C35.5859 444.716 34.8949 444.579 33.7892 444.304C32.5454 444.167 30.887 443.754 28.5376 443.754C26.3263 443.754 23.5623 444.167 21.0746 445.678C19.8308 446.502 18.587 447.601 17.896 449.113C17.0668 450.624 16.7904 452.273 16.9286 454.059C17.0668 455.708 17.6196 457.356 18.4488 458.73C19.278 460.104 20.3836 461.203 21.6274 462.028C23.9769 463.814 26.6027 464.501 28.8139 464.913C31.0252 465.188 32.8218 465.188 34.0657 465.05C35.3095 464.913 36.0005 464.776 36.0005 464.776C36.0005 464.776 35.3095 464.776 34.0657 464.776C32.8218 464.776 31.0252 464.776 28.9522 464.363C26.8791 463.951 24.3915 463.127 22.042 461.478C19.8308 459.829 17.7578 457.082 17.6196 453.921C17.4814 452.273 17.7578 450.761 18.4488 449.388C19.1398 448.014 20.2454 447.052 21.351 446.227C23.7005 444.716 26.3263 444.304 28.5376 444.167C30.7488 444.167 32.4072 444.304 33.651 444.441C34.8949 444.716 35.5859 444.854 35.5859 444.716Z" fill="#263238"/>
<path d="M37.1064 425.757C37.1064 425.757 36.9683 425.619 36.5536 425.345C36.139 425.207 35.5862 424.932 34.757 424.658C33.0986 424.108 30.611 423.696 27.7087 424.245C27.0177 424.383 26.1885 424.658 25.4975 425.07C24.8064 425.482 24.1155 426.306 23.8391 427.268C23.2862 429.054 23.9773 431.115 25.2211 432.764C25.9121 433.588 26.7413 434.275 27.7087 434.687C28.6761 435.099 30.0581 435.099 31.0255 434.55C31.993 434 32.9604 432.901 32.9604 431.665C32.9604 430.428 32.1312 429.192 31.0255 428.642C29.9199 428.092 28.6761 428.092 27.4323 428.23C26.3267 428.505 25.2211 429.054 24.3919 429.741C22.5952 431.115 21.4896 433.176 21.3514 435.237C21.075 437.298 21.9042 439.221 22.8716 440.733C23.9772 442.244 25.3593 443.206 26.6031 443.893C29.3671 445.267 31.8548 445.541 33.5132 445.679C34.3424 445.679 35.0334 445.816 35.448 445.816C35.8626 445.816 36.1391 445.816 36.1391 445.816C36.1391 445.816 35.1716 445.679 33.5132 445.541C31.8548 445.267 29.5053 444.992 26.8795 443.618C25.6357 442.931 24.2536 441.969 23.2862 440.595C22.3188 439.221 21.6278 437.435 21.9042 435.512C22.1806 433.588 23.148 431.802 24.8064 430.565C25.6357 429.878 26.6031 429.466 27.5705 429.192C28.5379 428.917 29.6435 429.054 30.611 429.466C31.5784 429.878 32.1312 430.84 32.1312 431.802C32.1312 432.764 31.4402 433.588 30.611 434.138C29.7817 434.687 28.6761 434.687 27.8469 434.275C26.8795 434 26.1885 433.313 25.6357 432.626C24.3918 431.252 23.839 429.329 24.2536 427.68C24.6682 426.031 26.1885 425.207 27.7087 424.932C30.611 424.245 32.9604 424.658 34.6188 425.07C36.2772 425.345 37.1064 425.894 37.1064 425.757Z" fill="#263238"/>
<path d="M36.9683 407.071C36.9683 407.071 36.5537 406.934 35.5862 406.796C34.757 406.796 33.375 406.796 31.8548 407.346C30.3345 407.896 28.6761 408.857 27.2941 410.369C25.9121 412.017 24.9446 414.216 24.9446 416.689C24.8064 419.162 25.6356 421.497 26.8795 423.146C28.1233 424.795 29.7817 425.894 31.302 426.444C32.8222 426.993 34.066 427.131 34.8952 427.131C35.7244 427.131 36.2772 426.993 36.2772 426.993C36.2772 426.856 34.2042 427.268 31.4402 425.894C30.0581 425.207 28.5379 424.245 27.4323 422.597C26.1884 420.948 25.4974 418.887 25.6356 416.551C25.7739 414.216 26.6031 412.155 27.8469 410.643C29.0907 409.132 30.7492 408.17 32.1312 407.621C35.0334 406.796 36.9683 407.209 36.9683 407.071Z" fill="#263238"/>
<path d="M128.596 316.804C128.596 316.804 128.043 317.628 127.49 319.277C126.937 320.925 126.384 323.399 125.832 326.696C125.279 329.993 124.864 333.978 124.45 338.512C124.035 343.183 123.62 348.404 122.929 354.312C122.791 355.823 122.515 357.197 122.238 358.709C121.962 360.22 121.547 361.731 120.856 363.105C120.165 364.479 119.06 365.716 117.816 366.815C116.572 367.914 115.328 369.013 113.808 369.837C110.906 371.624 107.451 372.86 103.857 373.272C100.264 373.684 96.3946 373.135 92.9395 371.349C89.4845 369.7 86.7204 366.403 85.8912 362.556C85.4766 360.632 85.6148 358.571 86.3058 356.648C86.9968 354.724 88.3788 353.213 90.1755 352.114C91.8339 351.015 93.9069 350.328 95.9799 350.19C98.053 350.053 100.264 350.602 101.923 351.976C102.752 352.663 103.443 353.35 103.857 354.312C104.272 355.274 104.41 356.236 104.272 357.335C103.857 359.396 102.337 361.182 100.402 362.143C98.4676 363.243 96.2563 363.655 94.0451 363.93C91.8339 364.204 89.6226 364.342 87.5496 364.342C83.1271 364.479 78.8428 364.067 74.6968 363.655C66.2664 362.693 58.1125 361.319 50.3732 361.319C42.6338 361.182 35.0327 362.281 28.6754 365.441C25.4967 366.952 22.7327 369.013 20.6596 371.486C18.4484 373.959 17.0664 376.844 16.5136 379.73C15.2698 385.638 16.6518 391.133 18.863 395.255C21.2125 399.377 24.3911 402.125 27.017 403.911C29.781 405.697 32.1304 406.796 33.7889 407.346C35.4473 407.895 36.2765 408.17 36.2765 408.17C36.2765 408.17 36.0001 408.033 35.5855 407.895C35.1709 407.758 34.4799 407.483 33.7889 407.208C32.1304 406.521 29.781 405.56 27.1552 403.636C24.5293 401.713 21.3506 398.965 19.1394 394.98C16.9282 390.996 15.6844 385.5 16.9282 379.867C17.6192 377.119 18.863 374.234 21.0743 371.898C23.1473 369.563 25.9113 367.502 28.9518 366.128C35.1709 363.105 42.6338 362.006 50.3732 362.143C58.1125 362.281 66.2664 363.655 74.6968 364.479C78.9811 364.891 83.2653 365.303 87.6878 365.166C89.899 365.166 92.1103 365.029 94.3215 364.754C96.5328 364.479 98.8822 364.067 100.817 362.968C102.89 361.869 104.548 359.945 104.963 357.609C105.239 356.51 104.963 355.274 104.549 354.175C103.996 353.075 103.305 352.251 102.337 351.564C100.541 350.19 98.1912 349.641 95.9799 349.641C93.7687 349.778 91.5575 350.465 89.7608 351.702C87.9642 352.938 86.444 354.587 85.6148 356.648C84.7855 358.709 84.7856 360.907 85.2002 362.83C86.1676 366.952 89.0698 370.25 92.6631 372.036C96.2563 373.822 100.264 374.371 103.857 373.959C107.589 373.547 111.044 372.311 114.084 370.524C115.605 369.563 116.987 368.601 118.092 367.364C119.336 366.128 120.442 365.029 121.271 363.517C121.962 362.006 122.377 360.495 122.653 358.983C122.929 357.472 123.206 355.961 123.344 354.587C124.035 348.816 124.45 343.458 124.864 338.787C125.279 334.115 125.693 330.131 126.108 326.971C126.523 323.673 127.075 321.2 127.628 319.552C127.905 318.727 128.043 318.04 128.319 317.765C128.457 316.941 128.596 316.804 128.596 316.804Z" fill="#263238"/>
<path d="M48.8539 510.253C48.8539 510.253 48.8539 510.116 48.8539 509.704C48.8539 509.291 48.8539 508.742 48.8539 508.055C48.8539 506.544 48.8539 504.483 48.8539 501.597C48.8539 495.964 48.8539 487.721 48.9921 477.279C48.9921 456.395 49.1303 426.581 49.1303 390.858L48.8539 391.133C81.4697 391.133 119.614 391.133 160.383 391.133L159.969 390.721C159.969 434.687 159.969 475.63 159.969 510.116L160.245 509.841C126.8 509.841 99.0214 509.978 79.5349 509.978C69.7225 509.978 62.1214 509.978 56.8697 510.116C54.2438 510.116 52.309 510.116 50.927 510.116C49.5449 510.253 48.8539 510.253 48.8539 510.253C48.8539 510.253 49.5449 510.253 50.927 510.253C52.309 510.253 54.2438 510.253 56.8697 510.253C62.1214 510.253 69.7225 510.253 79.3967 510.391C98.8832 510.391 126.8 510.528 160.383 510.528H160.66V510.253C160.66 475.767 160.66 434.687 160.66 390.858V390.446H160.245C119.614 390.446 81.4697 390.446 48.7158 390.446H48.4393V390.721C48.4393 426.443 48.5775 456.395 48.5775 477.279C48.5775 487.721 48.5775 495.964 48.7158 501.597C48.7158 504.345 48.7158 506.544 48.7158 507.917C48.7158 508.604 48.7158 509.154 48.7158 509.566C48.854 510.116 48.8539 510.253 48.8539 510.253Z" fill="#263238"/>
<path d="M80.7778 406.11C80.4725 406.11 80.225 405.864 80.225 405.561C80.225 405.257 80.4725 405.011 80.7778 405.011C81.0831 405.011 81.3306 405.257 81.3306 405.561C81.3306 405.864 81.0831 406.11 80.7778 406.11Z" fill="#263238"/>
<path d="M77.7377 406.11C77.4324 406.11 77.1849 405.864 77.1849 405.56C77.1849 405.257 77.4324 405.011 77.7377 405.011C78.043 405.011 78.2905 405.257 78.2905 405.56C78.2905 405.864 78.043 406.11 77.7377 406.11Z" fill="#263238"/>
<path d="M74.5585 406.11C74.2532 406.11 74.0057 405.864 74.0057 405.56C74.0057 405.257 74.2532 405.011 74.5585 405.011C74.8638 405.011 75.1113 405.257 75.1113 405.56C75.1113 405.864 74.8638 406.11 74.5585 406.11Z" fill="#263238"/>
<path d="M71.2934 406.192C70.9881 406.192 70.7406 405.946 70.7406 405.643C70.7406 405.339 70.9881 405.093 71.2934 405.093C71.5987 405.093 71.8462 405.339 71.8462 405.643C71.8462 405.946 71.5987 406.192 71.2934 406.192Z" fill="#263238"/>
<path d="M68.1151 406.192C67.8098 406.192 67.5623 405.946 67.5623 405.643C67.5623 405.339 67.8098 405.093 68.1151 405.093C68.4204 405.093 68.668 405.339 68.668 405.643C68.668 405.946 68.4204 406.192 68.1151 406.192Z" fill="#263238"/>
<path d="M65.0229 406.11C64.7176 406.11 64.4701 405.864 64.4701 405.56C64.4701 405.257 64.7176 405.011 65.0229 405.011C65.3282 405.011 65.5757 405.257 65.5757 405.56C65.5757 405.864 65.3282 406.11 65.0229 406.11Z" fill="#263238"/>
<path d="M61.9838 406.11C61.6785 406.11 61.431 405.864 61.431 405.56C61.431 405.257 61.6785 405.011 61.9838 405.011C62.2891 405.011 62.5366 405.257 62.5366 405.56C62.5366 405.864 62.2891 406.11 61.9838 406.11Z" fill="#263238"/>
<path d="M63.3656 408.308C63.0603 408.308 62.8128 408.062 62.8128 407.759C62.8128 407.455 63.0603 407.209 63.3656 407.209C63.6709 407.209 63.9185 407.455 63.9185 407.759C63.9185 408.062 63.6709 408.308 63.3656 408.308Z" fill="#263238"/>
<path d="M66.4565 408.392C66.1512 408.392 65.9037 408.146 65.9037 407.842C65.9037 407.539 66.1512 407.292 66.4565 407.292C66.7618 407.292 67.0093 407.539 67.0093 407.842C67.0093 408.146 66.7618 408.392 66.4565 408.392Z" fill="#263238"/>
<path d="M69.7724 408.392C69.4671 408.392 69.2196 408.146 69.2196 407.842C69.2196 407.539 69.4671 407.292 69.7724 407.292C70.0777 407.292 70.3252 407.539 70.3252 407.842C70.3252 408.146 70.0777 408.392 69.7724 408.392Z" fill="#263238"/>
<path d="M72.9516 408.392C72.6462 408.392 72.3988 408.146 72.3988 407.842C72.3988 407.539 72.6462 407.292 72.9516 407.292C73.2569 407.292 73.5044 407.539 73.5044 407.842C73.5044 408.146 73.2569 408.392 72.9516 408.392Z" fill="#263238"/>
<path d="M76.2187 408.308C75.9134 408.308 75.6659 408.062 75.6659 407.759C75.6659 407.455 75.9134 407.209 76.2187 407.209C76.524 407.209 76.7715 407.455 76.7715 407.759C76.7715 408.062 76.524 408.308 76.2187 408.308Z" fill="#263238"/>
<path d="M79.5341 408.308C79.2288 408.308 78.9813 408.062 78.9813 407.759C78.9813 407.455 79.2288 407.209 79.5341 407.209C79.8394 407.209 80.0869 407.455 80.0869 407.759C80.0869 408.062 79.8394 408.308 79.5341 408.308Z" fill="#263238"/>
<path d="M80.7783 410.643C80.4729 410.643 80.2255 410.397 80.2255 410.094C80.2255 409.79 80.4729 409.544 80.7783 409.544C81.0836 409.544 81.3311 409.79 81.3311 410.094C81.3311 410.397 81.0836 410.643 80.7783 410.643Z" fill="#263238"/>
<path d="M77.7377 410.643C77.4324 410.643 77.1849 410.397 77.1849 410.094C77.1849 409.79 77.4324 409.544 77.7377 409.544C78.043 409.544 78.2905 409.79 78.2905 410.094C78.2905 410.397 78.043 410.643 77.7377 410.643Z" fill="#263238"/>
<path d="M74.5585 410.643C74.2532 410.643 74.0057 410.397 74.0057 410.094C74.0057 409.79 74.2532 409.544 74.5585 409.544C74.8638 409.544 75.1113 409.79 75.1113 410.094C75.1113 410.397 74.8638 410.643 74.5585 410.643Z" fill="#263238"/>
<path d="M71.2934 410.727C70.9881 410.727 70.7406 410.481 70.7406 410.177C70.7406 409.873 70.9881 409.627 71.2934 409.627C71.5987 409.627 71.8462 409.873 71.8462 410.177C71.8462 410.481 71.5987 410.727 71.2934 410.727Z" fill="#263238"/>
<path d="M68.1151 410.727C67.8098 410.727 67.5623 410.481 67.5623 410.177C67.5623 409.873 67.8098 409.627 68.1151 409.627C68.4204 409.627 68.668 409.873 68.668 410.177C68.668 410.481 68.4204 410.727 68.1151 410.727Z" fill="#263238"/>
<path d="M65.0229 410.643C64.7176 410.643 64.4701 410.397 64.4701 410.094C64.4701 409.79 64.7176 409.544 65.0229 409.544C65.3282 409.544 65.5757 409.79 65.5757 410.094C65.5757 410.397 65.3282 410.643 65.0229 410.643Z" fill="#263238"/>
<path d="M61.9838 410.643C61.6785 410.643 61.431 410.397 61.431 410.094C61.431 409.79 61.6785 409.544 61.9838 409.544C62.2891 409.544 62.5366 409.79 62.5366 410.094C62.5366 410.397 62.2891 410.643 61.9838 410.643Z" fill="#263238"/>
<path d="M63.3656 412.705C63.0603 412.705 62.8128 412.459 62.8128 412.155C62.8128 411.852 63.0603 411.605 63.3656 411.605C63.6709 411.605 63.9185 411.852 63.9185 412.155C63.9185 412.459 63.6709 412.705 63.3656 412.705Z" fill="#263238"/>
<path d="M66.4565 412.787C66.1512 412.787 65.9037 412.541 65.9037 412.237C65.9037 411.934 66.1512 411.688 66.4565 411.688C66.7618 411.688 67.0093 411.934 67.0093 412.237C67.0093 412.541 66.7618 412.787 66.4565 412.787Z" fill="#263238"/>
<path d="M69.7724 412.787C69.4671 412.787 69.2196 412.541 69.2196 412.237C69.2196 411.934 69.4671 411.688 69.7724 411.688C70.0777 411.688 70.3252 411.934 70.3252 412.237C70.3252 412.541 70.0777 412.787 69.7724 412.787Z" fill="#263238"/>
<path d="M72.9516 412.787C72.6462 412.787 72.3988 412.541 72.3988 412.237C72.3988 411.934 72.6462 411.688 72.9516 411.688C73.2569 411.688 73.5044 411.934 73.5044 412.237C73.5044 412.541 73.2569 412.787 72.9516 412.787Z" fill="#263238"/>
<path d="M76.2187 412.705C75.9134 412.705 75.6659 412.459 75.6659 412.155C75.6659 411.852 75.9134 411.605 76.2187 411.605C76.524 411.605 76.7715 411.852 76.7715 412.155C76.7715 412.459 76.524 412.705 76.2187 412.705Z" fill="#263238"/>
<path d="M79.5341 412.705C79.2288 412.705 78.9813 412.459 78.9813 412.155C78.9813 411.852 79.2288 411.605 79.5341 411.605C79.8394 411.605 80.0869 411.852 80.0869 412.155C80.0869 412.459 79.8394 412.705 79.5341 412.705Z" fill="#263238"/>
<path d="M80.7783 415.178C80.4729 415.178 80.2255 414.932 80.2255 414.628C80.2255 414.325 80.4729 414.079 80.7783 414.079C81.0836 414.079 81.3311 414.325 81.3311 414.628C81.3311 414.932 81.0836 415.178 80.7783 415.178Z" fill="#263238"/>
<path d="M77.7377 415.178C77.4324 415.178 77.1849 414.932 77.1849 414.628C77.1849 414.325 77.4324 414.079 77.7377 414.079C78.043 414.079 78.2905 414.325 78.2905 414.628C78.2905 414.932 78.043 415.178 77.7377 415.178Z" fill="#263238"/>
<path d="M74.5585 415.178C74.2532 415.178 74.0057 414.932 74.0057 414.628C74.0057 414.325 74.2532 414.079 74.5585 414.079C74.8638 414.079 75.1113 414.325 75.1113 414.628C75.1113 414.932 74.8638 415.178 74.5585 415.178Z" fill="#263238"/>
<path d="M71.2934 415.261C70.9881 415.261 70.7406 415.015 70.7406 414.711C70.7406 414.408 70.9881 414.162 71.2934 414.162C71.5987 414.162 71.8462 414.408 71.8462 414.711C71.8462 415.015 71.5987 415.261 71.2934 415.261Z" fill="#263238"/>
<path d="M68.1151 415.261C67.8098 415.261 67.5623 415.015 67.5623 414.711C67.5623 414.408 67.8098 414.162 68.1151 414.162C68.4204 414.162 68.668 414.408 68.668 414.711C68.668 415.015 68.4204 415.261 68.1151 415.261Z" fill="#263238"/>
<path d="M65.0229 415.178C64.7176 415.178 64.4701 414.932 64.4701 414.628C64.4701 414.325 64.7176 414.079 65.0229 414.079C65.3282 414.079 65.5757 414.325 65.5757 414.628C65.5757 414.932 65.3282 415.178 65.0229 415.178Z" fill="#263238"/>
<path d="M61.9838 415.178C61.6785 415.178 61.431 414.932 61.431 414.628C61.431 414.325 61.6785 414.079 61.9838 414.079C62.2891 414.079 62.5366 414.325 62.5366 414.628C62.5366 414.932 62.2891 415.178 61.9838 415.178Z" fill="#263238"/>
<path d="M63.3656 417.239C63.0603 417.239 62.8128 416.993 62.8128 416.689C62.8128 416.386 63.0603 416.14 63.3656 416.14C63.6709 416.14 63.9185 416.386 63.9185 416.689C63.9185 416.993 63.6709 417.239 63.3656 417.239Z" fill="#263238"/>
<path d="M66.4565 417.322C66.1512 417.322 65.9037 417.076 65.9037 416.773C65.9037 416.469 66.1512 416.223 66.4565 416.223C66.7618 416.223 67.0093 416.469 67.0093 416.773C67.0093 417.076 66.7618 417.322 66.4565 417.322Z" fill="#263238"/>
<path d="M69.7724 417.322C69.4671 417.322 69.2196 417.076 69.2196 416.773C69.2196 416.469 69.4671 416.223 69.7724 416.223C70.0777 416.223 70.3252 416.469 70.3252 416.773C70.3252 417.076 70.0777 417.322 69.7724 417.322Z" fill="#263238"/>
<path d="M72.9516 417.322C72.6462 417.322 72.3988 417.076 72.3988 416.773C72.3988 416.469 72.6462 416.223 72.9516 416.223C73.2569 416.223 73.5044 416.469 73.5044 416.773C73.5044 417.076 73.2569 417.322 72.9516 417.322Z" fill="#263238"/>
<path d="M76.2187 417.239C75.9134 417.239 75.6659 416.993 75.6659 416.689C75.6659 416.386 75.9134 416.14 76.2187 416.14C76.524 416.14 76.7715 416.386 76.7715 416.689C76.7715 416.993 76.524 417.239 76.2187 417.239Z" fill="#263238"/>
<path d="M79.5341 417.239C79.2288 417.239 78.9813 416.993 78.9813 416.689C78.9813 416.386 79.2288 416.14 79.5341 416.14C79.8394 416.14 80.0869 416.386 80.0869 416.689C80.0869 416.993 79.8394 417.239 79.5341 417.239Z" fill="#263238"/>
<path d="M530.211 306.912V320.102H457.102V515.75H450.33V320.102L144.765 321.613V515.75H138.131V321.201L91.0043 321.613V305.813L530.211 306.912Z" fill="#FF8F6B"/>
<path d="M483.36 317.491L454.476 338.1L457.102 340.573L486.125 318.728L483.36 317.491Z" fill="#FF8F6B"/>
<path d="M110.906 319.415L144.489 343.184L142.002 345.52L108.28 320.652L110.906 319.415Z" fill="#FF8F6B"/>
<path d="M348.199 302.103H423.795V307.599H348.199V302.103Z" fill="#263238"/>
</svg>
