<svg width="30" height="30" viewBox="0 0 30 30" fill="none" xmlns="http://www.w3.org/2000/svg">
<path fill-rule="evenodd" clip-rule="evenodd" d="M27.234 13.1738C27.0648 13.3382 26.8351 13.4322 26.5933 13.4322C25.6987 13.4322 24.9734 14.1368 24.9734 14.9941C24.9734 15.8573 25.6903 16.5584 26.5764 16.5678C27.0757 16.5725 27.5 16.9107 27.5 17.3958V20.4081C27.5 22.9436 25.3844 25 22.7732 25H18.8322C18.4248 25 18.0948 24.6794 18.0948 24.2836V21.7469C18.0948 21.2537 17.6958 20.8661 17.1881 20.8661C16.6925 20.8661 16.2814 21.2537 16.2814 21.7469V24.2836C16.2814 24.6794 15.9514 25 15.5452 25H7.22679C4.62766 25 2.5 22.9448 2.5 20.4081V17.3958C2.5 16.9107 2.92432 16.5725 3.4236 16.5678C4.31093 16.5584 5.0266 15.8573 5.0266 14.9941C5.0266 14.1603 4.32544 13.5261 3.40667 13.5261C3.16489 13.5261 2.9352 13.4322 2.76596 13.2678C2.59671 13.1033 2.5 12.8802 2.5 12.6453V9.60364C2.5 7.07164 4.63249 5 7.23888 5H15.5452C15.9514 5 16.2814 5.32061 16.2814 5.71638V8.72284C16.2814 9.20435 16.6925 9.60364 17.1881 9.60364C17.6958 9.60364 18.0948 9.20435 18.0948 8.72284V5.71638C18.0948 5.32061 18.4248 5 18.8322 5H22.7732C25.3844 5 27.5 7.0552 27.5 9.5919V12.5514C27.5 12.7863 27.4033 13.0094 27.234 13.1738ZM17.1881 18.5878C17.6958 18.5878 18.0948 18.1885 18.0948 17.707V13.0094C18.0948 12.5279 17.6958 12.1286 17.1881 12.1286C16.6925 12.1286 16.2814 12.5279 16.2814 13.0094V17.707C16.2814 18.1885 16.6925 18.5878 17.1881 18.5878Z" fill="#606060"/>
</svg>
