<svg width="30" height="30" viewBox="0 0 30 30" fill="none" xmlns="http://www.w3.org/2000/svg">
<path fill-rule="evenodd" clip-rule="evenodd" d="M21.4746 5.5125C21.4746 3.85 22.8246 2.5 24.4871 2.5C26.1496 2.5 27.4996 3.85 27.4996 5.5125C27.4996 7.175 26.1496 8.525 24.4871 8.525C22.8246 8.525 21.4746 7.175 21.4746 5.5125ZM16.662 18.4491L20.2745 13.7879L20.2245 13.8129C20.4245 13.5379 20.462 13.1879 20.3245 12.8754C20.1883 12.5629 19.887 12.3504 19.5633 12.3254C19.2245 12.2879 18.8883 12.4379 18.687 12.7129L15.6633 16.6254L12.1995 13.9004C11.987 13.7379 11.737 13.6741 11.487 13.7004C11.2383 13.7379 11.0133 13.8741 10.862 14.0741L7.16326 18.8879L7.08701 19.0004C6.87451 19.3991 6.97451 19.9116 7.34951 20.1879C7.52451 20.3004 7.71201 20.3754 7.92451 20.3754C8.21326 20.3879 8.48701 20.2366 8.66201 20.0004L11.7995 15.9616L15.362 18.6379L15.4745 18.7116C15.8745 18.9241 16.3745 18.8254 16.662 18.4491ZM19.312 4.72537C19.262 5.03787 19.237 5.35037 19.237 5.66287C19.237 8.47537 21.512 10.7491 24.312 10.7491C24.6245 10.7491 24.9245 10.7129 25.237 10.6629V20.7491C25.237 24.9879 22.737 27.5004 18.487 27.5004H9.25076C4.99951 27.5004 2.49951 24.9879 2.49951 20.7491V11.5004C2.49951 7.25037 4.99951 4.72537 9.25076 4.72537H19.312Z" fill="#606060"/>
</svg>
