<svg width="30" height="30" viewBox="0 0 30 30" fill="none" xmlns="http://www.w3.org/2000/svg">
<path d="M16 16.9308V24.9288C16 25.5685 16.4093 26.1364 17.0162 26.3387C17.3298 26.4433 17.6692 26.4403 17.9809 26.3303L25.1092 23.8144C25.6874 23.6103 26.1839 23.2242 26.524 22.714C26.8344 22.2484 27 21.7014 27 21.1419V12.2774C27 11.4945 26.5577 10.7788 25.8574 10.4287C25.3136 10.1568 24.6777 10.1381 24.1189 10.3776L18.8251 12.6464C18.28 12.88 17.7846 13.2154 17.3652 13.6348C16.4911 14.5089 16 15.6945 16 16.9308Z" fill="#606060"/>
<path d="M14 16.9308V24.9288C14 25.5685 13.5907 26.1364 12.9838 26.3387C12.6702 26.4433 12.3308 26.4403 12.0191 26.3303L4.89083 23.8144C4.31258 23.6103 3.81613 23.2242 3.47598 22.714C3.16562 22.2484 3 21.7014 3 21.1419V12.2774C3 11.4945 3.44233 10.7788 4.14257 10.4287C4.68637 10.1568 5.3223 10.1381 5.88113 10.3776L11.1749 12.6464C11.72 12.88 12.2154 13.2154 12.6348 13.6348C13.5089 14.5089 14 15.6945 14 16.9308Z" fill="#606060"/>
<path d="M11.369 4.63428L4.466 7.31878C4.18506 7.42803 4 7.69856 4 8C4 8.30144 4.18506 8.57197 4.466 8.68122L11.369 11.3657C12.4469 11.7849 13.5934 12 14.75 12C15.9066 12 17.0531 11.7849 18.131 11.3657L25.034 8.68122C25.3149 8.57197 25.5 8.30144 25.5 8C25.5 7.69856 25.3149 7.42803 25.034 7.31878L18.131 4.63428C17.0531 4.21508 15.9066 4 14.75 4C13.5934 4 12.4469 4.21508 11.369 4.63428Z" fill="#606060"/>
</svg>
