<svg width="30" height="30" viewBox="0 0 30 30" fill="none" xmlns="http://www.w3.org/2000/svg">
<path fill-rule="evenodd" clip-rule="evenodd" d="M20.6698 9.48204C20.6698 12.6639 18.1155 15.2153 14.9299 15.2153C11.7442 15.2153 9.1899 12.6639 9.1899 9.48204C9.1899 6.29893 11.7442 3.75 14.9299 3.75C18.1155 3.75 20.6698 6.29893 20.6698 9.48204ZM14.9306 25.4164C10.2517 25.4164 6.25654 24.6798 6.25654 21.7333C6.25654 18.7856 10.226 18.0221 14.9306 18.0221C19.6095 18.0221 23.6046 18.7587 23.6046 21.7065C23.6046 24.653 19.6351 25.4164 14.9306 25.4164ZM23.1234 9.58577C23.1234 11.2078 22.6362 12.7189 21.7815 13.975C21.6936 14.1043 21.7718 14.2787 21.9268 14.3056C22.1405 14.3421 22.3615 14.3629 22.5862 14.369C24.8267 14.4275 26.8377 12.9872 27.3933 10.8188C28.2163 7.59785 25.7999 4.70622 22.7229 4.70622C22.3884 4.70622 22.0685 4.74159 21.7571 4.80501C21.7144 4.81476 21.6692 4.83428 21.6448 4.87208C21.6155 4.91843 21.6375 4.98063 21.6668 5.02087C22.5911 6.31485 23.1234 7.89299 23.1234 9.58577ZM26.8339 16.6311C28.3394 16.925 29.3297 17.5251 29.7399 18.3971C30.0867 19.113 30.0867 19.9435 29.7399 20.6582C29.1123 22.0107 27.0891 22.4449 26.3028 22.5571C26.1404 22.5815 26.0097 22.4412 26.0268 22.279C26.4285 18.5312 23.2332 16.7543 22.4065 16.3457C22.3711 16.3275 22.3638 16.2994 22.3675 16.2823C22.3699 16.2701 22.3846 16.2506 22.4114 16.247C24.2002 16.214 26.1233 16.4579 26.8339 16.6311ZM7.41312 14.3682C7.63779 14.3621 7.85757 14.3425 8.07247 14.3047C8.22753 14.2779 8.30568 14.1035 8.21777 13.9742C7.36306 12.7181 6.87588 11.207 6.87588 9.58496C6.87588 7.89218 7.40824 6.31404 8.33254 5.02006C8.36185 4.97981 8.3826 4.91761 8.35452 4.87127C8.3301 4.83468 8.2837 4.81395 8.24219 4.80419C7.92961 4.74078 7.6097 4.70541 7.27515 4.70541C4.19821 4.70541 1.78183 7.59704 2.60601 10.818C3.16157 12.9864 5.17257 14.4267 7.41312 14.3682ZM7.63222 16.2819C7.63588 16.3002 7.62856 16.327 7.59437 16.3466C6.76653 16.7551 3.57115 18.5321 3.97286 22.2786C3.98995 22.442 3.86052 22.5811 3.69813 22.5579C2.9118 22.4457 0.888589 22.0115 0.260991 20.659C-0.0869969 19.9431 -0.0869969 19.1138 0.260991 18.3979C0.67125 17.5259 1.66027 16.9259 3.16577 16.6307C3.87762 16.4588 5.79949 16.2148 7.58949 16.2478C7.61635 16.2514 7.62978 16.2709 7.63222 16.2819Z" fill="#606060"/>
</svg>
